<?xml version="1.0" encoding="UTF-8" standalone="no"?>
<svg
   xmlns:dc="http://purl.org/dc/elements/1.1/"
   xmlns:cc="http://creativecommons.org/ns#"
   xmlns:rdf="http://www.w3.org/1999/02/22-rdf-syntax-ns#"
   xmlns:svg="http://www.w3.org/2000/svg"
   xmlns="http://www.w3.org/2000/svg"
   xmlns:sodipodi="http://sodipodi.sourceforge.net/DTD/sodipodi-0.dtd"
   xmlns:inkscape="http://www.inkscape.org/namespaces/inkscape"
   inkscape:version="1.0 (4035a4fb49, 2020-05-01)"
   sodipodi:docname="icon.svg"
   xml:space="preserve"
   style="enable-background:new 0 0 96 96;"
   viewBox="0 0 96 96"
   y="0px"
   x="0px"
   id="Layer_1"
   version="1.1"><metadata
   id="metadata11"><rdf:RDF><cc:Work
       rdf:about=""><dc:format>image/svg+xml</dc:format><dc:type
         rdf:resource="http://purl.org/dc/dcmitype/StillImage" /></cc:Work></rdf:RDF></metadata><defs
   id="defs9" /><sodipodi:namedview
   inkscape:current-layer="Layer_1"
   inkscape:cy="79.841623"
   inkscape:cx="44.851607"
   inkscape:zoom="3.5595817"
   showgrid="false"
   id="namedview7"
   inkscape:window-height="480"
   inkscape:window-width="640"
   inkscape:pageshadow="2"
   inkscape:pageopacity="0"
   guidetolerance="10"
   gridtolerance="10"
   objecttolerance="10"
   borderopacity="1"
   bordercolor="#666666"
   pagecolor="#ffffff" />
<style
   id="style2"
   type="text/css">
	.st0{fill:#333333;}
</style>

<path
   sodipodi:nodetypes="sssssssssccccccccccccc"
   d="m 16.21995,14.510143 c -1.994238,0 -3.599704,1.60547 -3.599704,3.599708 V 79.37352 c 0,1.994234 1.605466,3.5997 3.599704,3.5997 h 64.794735 c 1.994238,0 3.599704,-1.605466 3.599704,-3.5997 V 18.109851 c 0,-1.994238 -1.605466,-3.599708 -3.599704,-3.599708 z m 10.855364,8.528215 c 2.913852,0.0026 5.274246,2.366184 5.273007,5.280037 -0.0026,2.911108 -2.361901,5.27036 -5.273007,5.27301 -2.913851,0.0012 -5.277387,-2.359158 -5.28004,-5.27301 -0.0012,-2.916595 2.363456,-5.281268 5.28004,-5.280037 z m 37.740689,23.977695 10.79912,10.799124 V 72.214015 H 21.619511 V 68.6143 l 21.598246,-17.998528 7.199419,7.199405 z"
   style="fill:#484848;fill-opacity:1;stroke:none;stroke-width:2.87977;stroke-linecap:round;stroke-linejoin:round;stroke-miterlimit:4;stroke-dasharray:none"
   id="rect908" /></svg>
