<?xml version="1.0" encoding="UTF-8" standalone="no"?>
<svg
   xmlns:dc="http://purl.org/dc/elements/1.1/"
   xmlns:cc="http://creativecommons.org/ns#"
   xmlns:rdf="http://www.w3.org/1999/02/22-rdf-syntax-ns#"
   xmlns:svg="http://www.w3.org/2000/svg"
   xmlns="http://www.w3.org/2000/svg"
   xmlns:sodipodi="http://sodipodi.sourceforge.net/DTD/sodipodi-0.dtd"
   xmlns:inkscape="http://www.inkscape.org/namespaces/inkscape"
   inkscape:version="1.0 (4035a4fb49, 2020-05-01)"
   sodipodi:docname="pan.svg"
   id="svg9"
   viewBox="0 0 70 70"
   version="1.1">
  <metadata
     id="metadata15">
    <rdf:RDF>
      <cc:Work
         rdf:about="">
        <dc:format>image/svg+xml</dc:format>
        <dc:type
           rdf:resource="http://purl.org/dc/dcmitype/StillImage" />
      </cc:Work>
    </rdf:RDF>
  </metadata>
  <defs
     id="defs13" />
  <sodipodi:namedview
     inkscape:current-layer="svg9"
     inkscape:cy="35"
     inkscape:cx="35"
     inkscape:zoom="9.7634241"
     showgrid="false"
     id="namedview11"
     inkscape:window-height="480"
     inkscape:window-width="640"
     inkscape:pageshadow="2"
     inkscape:pageopacity="0"
     guidetolerance="10"
     gridtolerance="10"
     objecttolerance="10"
     borderopacity="1"
     bordercolor="#666666"
     pagecolor="#ffffff" />
  <use
     id="use3"
     transform="rotate(90 35 35)"
     href="#arrow" />
  <use
     id="use5"
     transform="rotate(180 35 35)"
     href="#arrow" />
  <use
     id="use7"
     transform="rotate(-90 35 35)"
     href="#arrow" />
  <g
     transform="matrix(11.556221,0,0,11.556221,-262.89948,2.8760959)"
     id="g962">
    <path
       id="path942"
       style="fill:#484848;fill-opacity:1;stroke:none;stroke-width:0;stroke-linecap:round;stroke-linejoin:round;stroke-miterlimit:4;stroke-dasharray:none"
       d="m 25.860953,3.9828711 h 0.287522 v 0.1611561 c 0,0.3269266 -0.438618,0.8772363 -0.438618,0.8772372 -1e-6,8e-7 -0.438619,-0.5503106 -0.438619,-0.8772372 l 1e-6,-0.1611561 h 0.287522 c -5e-6,-0.8003967 0,-1.6007934 0,-2.4011901 H 25.271239 V 1.4205249 c 0,-0.3269266 0.438618,-0.87723633 0.438618,-0.87723716 1e-6,-8.3e-7 0.438619,0.55031056 0.438619,0.87723716 l -10e-7,0.1611561 h -0.287522 c 5e-6,0.8003967 0,1.6007934 0,2.4011901 z"
       sodipodi:nodetypes="cccsccccccscccc" />
    <path
       sodipodi:nodetypes="cccsccccccscccc"
       d="m 24.509262,2.9333721 v 0.287522 h -0.161156 c -0.326927,0 -0.877236,-0.438618 -0.877237,-0.438618 -1e-6,-10e-7 0.55031,-0.438619 0.877237,-0.438619 l 0.161156,10e-7 v 0.287522 c 0.800397,-5e-6 1.600793,0 2.40119,0 v -0.287522 h 0.161156 c 0.326927,0 0.877236,0.438618 0.877237,0.438618 1e-6,1e-6 -0.55031,0.438619 -0.877237,0.438619 l -0.161156,-10e-7 v -0.287522 c -0.800397,5e-6 -1.600793,0 -2.40119,0 z"
       style="fill:#484848;fill-opacity:1;stroke:none;stroke-width:0;stroke-linecap:round;stroke-linejoin:round;stroke-miterlimit:4;stroke-dasharray:none"
       id="path950" />
  </g>
</svg>
