<?xml version="1.0" encoding="UTF-8" standalone="no"?>
<svg
   xmlns:dc="http://purl.org/dc/elements/1.1/"
   xmlns:cc="http://creativecommons.org/ns#"
   xmlns:rdf="http://www.w3.org/1999/02/22-rdf-syntax-ns#"
   xmlns:svg="http://www.w3.org/2000/svg"
   xmlns="http://www.w3.org/2000/svg"
   xmlns:sodipodi="http://sodipodi.sourceforge.net/DTD/sodipodi-0.dtd"
   xmlns:inkscape="http://www.inkscape.org/namespaces/inkscape"
   sodipodi:docname="icon_source.svg"
   inkscape:version="1.0 (4035a4fb49, 2020-05-01)"
   id="svg8"
   version="1.1"
   viewBox="0 0 210 297"
   height="1122.5197"
   width="793.70081">
  <defs
     id="defs2" />
  <sodipodi:namedview
     inkscape:document-rotation="0"
     inkscape:window-maximized="1"
     inkscape:window-y="-8"
     inkscape:window-x="-8"
     inkscape:window-height="1417"
     inkscape:window-width="2560"
     inkscape:snap-tangential="true"
     inkscape:snap-perpendicular="true"
     gridtolerance="10"
     units="px"
     showgrid="true"
     inkscape:current-layer="layer1"
     inkscape:document-units="px"
     inkscape:cy="19.527056"
     inkscape:cx="147.79476"
     inkscape:zoom="4"
     inkscape:pageshadow="2"
     inkscape:pageopacity="0.0"
     borderopacity="1.0"
     bordercolor="#666666"
     pagecolor="#ffffff"
     id="base">
    <inkscape:grid
       id="grid830"
       type="xygrid" />
  </sodipodi:namedview>
  <metadata
     id="metadata5">
    <rdf:RDF>
      <cc:Work
         rdf:about="">
        <dc:format>image/svg+xml</dc:format>
        <dc:type
           rdf:resource="http://purl.org/dc/dcmitype/StillImage" />
        <dc:title></dc:title>
      </cc:Work>
    </rdf:RDF>
  </metadata>
  <g
     id="layer1"
     inkscape:groupmode="layer"
     inkscape:label="Layer 1">
    <g
       id="g1022">
      <text
         xml:space="preserve"
         style="font-style:normal;font-variant:normal;font-weight:normal;font-stretch:normal;font-size:6.35px;line-height:1.25;font-family:Calibri;-inkscape-font-specification:Calibri;letter-spacing:0px;word-spacing:0px;fill:#484848;fill-opacity:1;stroke-width:0.264583"
         x="74.017189"
         y="5.1810789"
         id="text1015"><tspan
           sodipodi:role="line"
           id="tspan1013"
           x="74.017189"
           y="5.1810789"
           style="font-style:normal;font-variant:normal;font-weight:normal;font-stretch:normal;font-size:6.35px;font-family:Calibri;-inkscape-font-specification:Calibri;fill:#484848;fill-opacity:1;stroke-width:0.264583">A</tspan></text>
      <path
         style="fill:#000000;fill-opacity:0;stroke:#484848;stroke-width:0.264583;stroke-linecap:round;stroke-linejoin:miter;stroke-miterlimit:4;stroke-dasharray:none;stroke-opacity:1"
         d="M 78.192642,1.0583333 V 5.4735676"
         id="path1017"
         sodipodi:nodetypes="cc" />
    </g>
    <g
       style="fill:#484848;fill-opacity:1"
       id="g879"
       transform="rotate(-45,12.721068,5.6338633)">
      <rect
         ry="0.070158251"
         y="1.3229166"
         x="9.7110348"
         height="1.0583333"
         width="0.79374999"
         id="rect875"
         style="fill:#484848;fill-opacity:1;stroke:none;stroke-width:0;stroke-linecap:round;stroke-linejoin:round;stroke-miterlimit:4;stroke-dasharray:none" />
      <path
         sodipodi:nodetypes="cssccsc"
         d="m 10.653492,2.3812494 c -0.03887,0 -0.07016,-0.031291 -0.07016,-0.070158 V 1.3930749 c 0,-0.038868 0.03129,-0.070158 0.07016,-0.070158 1.29953,10e-8 2.599061,10e-8 3.898591,10e-8 0.394417,0 1.058332,0.5291659 1.058333,0.5291666 10e-7,7e-7 -0.663916,0.5291667 -1.058333,0.5291667"
         style="fill:#484848;fill-opacity:1;stroke:none;stroke-width:0;stroke-linecap:round;stroke-linejoin:round;stroke-miterlimit:4;stroke-dasharray:none"
         id="path877" />
    </g>
    <g
       transform="translate(0,0.23867296)"
       id="g997">
      <g
         id="g873"
         transform="rotate(135,7.6635152,0.30285839)"
         style="fill:#484848;fill-opacity:1">
        <rect
           ry="0.070158251"
           y="1.3229166"
           x="9.7110348"
           height="1.0583333"
           width="0.79374999"
           id="rect866"
           style="fill:#484848;fill-opacity:1;stroke:none;stroke-width:0;stroke-linecap:round;stroke-linejoin:round;stroke-miterlimit:4;stroke-dasharray:none" />
        <path
           sodipodi:nodetypes="cssccsc"
           d="m 10.653492,2.3812494 c -0.03887,0 -0.07016,-0.031291 -0.07016,-0.070158 V 1.3930749 c 0,-0.038868 0.03129,-0.070158 0.07016,-0.070158 1.29953,10e-8 2.599061,10e-8 3.898591,10e-8 0.394417,0 1.058332,0.5291659 1.058333,0.5291666 10e-7,7e-7 -0.663916,0.5291667 -1.058333,0.5291667"
           style="fill:#484848;fill-opacity:1;stroke:none;stroke-width:0;stroke-linecap:round;stroke-linejoin:round;stroke-miterlimit:4;stroke-dasharray:none"
           id="rect868" />
      </g>
      <path
         style="fill:none;stroke:#484848;stroke-width:0.211667;stroke-linecap:round;stroke-linejoin:miter;stroke-miterlimit:4;stroke-dasharray:none;stroke-opacity:1"
         d="M 0.79374979,5.0270834 C 2.8093544,6.4010222 3.5990832,3.9177281 5.6146884,5.2916667"
         id="path883"
         sodipodi:nodetypes="cc" />
    </g>
    <path
       sodipodi:nodetypes="sssssssssccccccccccccc"
       d="m 14.077904,0.65893587 c -0.146579,0 -0.264583,0.1180041 -0.264583,0.2645833 V 5.4264809 c 0,0.146579 0.118004,0.264583 0.264583,0.264583 h 4.7625 c 0.146579,0 0.264583,-0.118004 0.264583,-0.264583 V 0.92351917 c 0,-0.1465792 -0.118004,-0.2645833 -0.264583,-0.2645833 z m 0.797884,0.62683523 c 0.214172,1.947e-4 0.387664,0.1739179 0.387573,0.3880899 -1.94e-4,0.2139702 -0.173603,0.3873786 -0.387573,0.3875731 -0.214172,9.05e-5 -0.387895,-0.1734013 -0.38809,-0.3875731 -9e-5,-0.2143736 0.173717,-0.3881804 0.38809,-0.3880899 z m 2.773991,1.7623928 0.79375,0.79375 v 1.058334 h -3.96875 v -0.264584 l 1.5875,-1.322916 0.529167,0.529166 z"
       style="fill:#484848;fill-opacity:1;stroke:none;stroke-width:0.211667;stroke-linecap:round;stroke-linejoin:round;stroke-miterlimit:4;stroke-dasharray:none"
       id="rect908" />
    <g
       transform="translate(-2.623235,0.39272383)"
       id="g962">
      <path
         id="path942"
         style="fill:#484848;fill-opacity:1;stroke:none;stroke-width:0;stroke-linecap:round;stroke-linejoin:round;stroke-miterlimit:4;stroke-dasharray:none"
         d="m 25.860953,3.9828711 h 0.287522 v 0.1611561 c 0,0.3269266 -0.438618,0.8772363 -0.438618,0.8772372 -1e-6,8e-7 -0.438619,-0.5503106 -0.438619,-0.8772372 l 1e-6,-0.1611561 h 0.287522 c -5e-6,-0.8003967 0,-1.6007934 0,-2.4011901 H 25.271239 V 1.4205249 c 0,-0.3269266 0.438618,-0.87723633 0.438618,-0.87723716 1e-6,-8.3e-7 0.438619,0.55031056 0.438619,0.87723716 l -10e-7,0.1611561 h -0.287522 c 5e-6,0.8003967 0,1.6007934 0,2.4011901 z"
         sodipodi:nodetypes="cccsccccccscccc" />
      <path
         sodipodi:nodetypes="cccsccccccscccc"
         d="m 24.509262,2.9333721 v 0.287522 h -0.161156 c -0.326927,0 -0.877236,-0.438618 -0.877237,-0.438618 -1e-6,-10e-7 0.55031,-0.438619 0.877237,-0.438619 l 0.161156,10e-7 v 0.287522 c 0.800397,-5e-6 1.600793,0 2.40119,0 v -0.287522 h 0.161156 c 0.326927,0 0.877236,0.438618 0.877237,0.438618 1e-6,1e-6 -0.55031,0.438619 -0.877237,0.438619 l -0.161156,-10e-7 v -0.287522 c -0.800397,5e-6 -1.600793,0 -2.40119,0 z"
         style="fill:#484848;fill-opacity:1;stroke:none;stroke-width:0;stroke-linecap:round;stroke-linejoin:round;stroke-miterlimit:4;stroke-dasharray:none"
         id="path950" />
    </g>
    <path
       sodipodi:nodetypes="cc"
       id="path952"
       d="m 38.325932,2.2489582 -3.96875,1.8520833"
       style="fill:none;stroke:#484848;stroke-width:0.264583;stroke-linecap:round;stroke-linejoin:miter;stroke-miterlimit:4;stroke-dasharray:none;stroke-opacity:1" />
    <g
       transform="translate(-0.83605604,-0.64239966)"
       id="g1003">
      <path
         style="fill:none;fill-opacity:1;stroke:#484848;stroke-width:0.132292;stroke-linecap:round;stroke-linejoin:round;stroke-miterlimit:4;stroke-dasharray:0.132292, 0.264583;stroke-dashoffset:0;stroke-opacity:1"
         id="path956"
         sodipodi:type="arc"
         sodipodi:cx="42.333332"
         sodipodi:cy="-4.6251636"
         sodipodi:rx="1.1575521"
         sodipodi:ry="1.1575521"
         sodipodi:start="0"
         sodipodi:end="0.78539816"
         sodipodi:arc-type="arc"
         d="m 43.490884,-4.6251636 a 1.1575521,1.1575521 0 0 1 -0.339039,0.818513"
         sodipodi:open="true"
         transform="scale(1,-1)" />
      <g
         id="g991"
         transform="translate(6.6145838,-0.13229176)">
        <path
           sodipodi:nodetypes="cc"
           style="fill:none;stroke:#484848;stroke-width:0.264583;stroke-linecap:round;stroke-linejoin:miter;stroke-miterlimit:4;stroke-dasharray:none;stroke-opacity:1"
           d="M 39.6875,4.757455 H 35.71875"
           id="path954" />
        <path
           sodipodi:nodetypes="cc"
           id="path958"
           d="M 35.71875,4.757455 38.503523,1.9843752"
           style="fill:#484848;fill-opacity:1;stroke:#484848;stroke-width:0.132292;stroke-linecap:round;stroke-linejoin:miter;stroke-miterlimit:4;stroke-dasharray:0.132292, 0.264583;stroke-dashoffset:0;stroke-opacity:1" />
      </g>
    </g>
    <g
       transform="matrix(1.7881667,0,0,1.7881667,-15.302455,-12.416991)"
       id="g983">
      <path
         sodipodi:nodetypes="cc"
         id="path964"
         d="M 24.870833,7.9375 V 9.1755856"
         style="fill:none;stroke:#484848;stroke-width:0.3175;stroke-linecap:round;stroke-linejoin:miter;stroke-miterlimit:4;stroke-dasharray:none;stroke-opacity:1" />
      <path
         style="fill:none;stroke:#484848;stroke-width:0.3175;stroke-linecap:round;stroke-linejoin:miter;stroke-miterlimit:4;stroke-dasharray:none;stroke-opacity:1"
         d="M 25.223611,7.5116863 V 9.1755856"
         id="path966"
         sodipodi:nodetypes="cc" />
      <path
         sodipodi:nodetypes="cc"
         id="path968"
         d="M 25.576389,7.6729167 V 9.1755856"
         style="fill:none;stroke:#484848;stroke-width:0.3175;stroke-linecap:round;stroke-linejoin:miter;stroke-miterlimit:4;stroke-dasharray:none;stroke-opacity:1" />
      <path
         style="fill:none;stroke:#484848;stroke-width:0.3175;stroke-linecap:round;stroke-linejoin:miter;stroke-miterlimit:4;stroke-dasharray:none;stroke-opacity:1"
         d="m 25.929167,8.1162996 v 1.059286"
         id="path970"
         sodipodi:nodetypes="cc" />
      <path
         style="fill:none;stroke:#484848;stroke-width:0.3175;stroke-linecap:round;stroke-linejoin:miter;stroke-miterlimit:4;stroke-dasharray:none;stroke-opacity:1"
         d="M 24.420215,8.7911634 24.870832,9.927393"
         id="path972"
         sodipodi:nodetypes="cc" />
      <path
         id="rect974"
         style="fill:#484848;fill-opacity:1;stroke:#484848;stroke-width:0.3175;stroke-linecap:round;stroke-linejoin:round;stroke-miterlimit:4;stroke-dasharray:none;stroke-dashoffset:0;stroke-opacity:1"
         d="m 24.870832,8.886198 c 0,0 0.336637,-0.1549481 0.529168,-0.154948 0.192532,1e-7 0.529167,0.154948 0.529167,0.154948 v 1.0411953 h -1.058335 z"
         sodipodi:nodetypes="czcccc" />
    </g>
    <path
       style="fill:none;stroke:#484848;stroke-width:0.264583;stroke-linecap:round;stroke-linejoin:miter;stroke-miterlimit:4;stroke-dasharray:none;stroke-opacity:1"
       d="m 51.580868,1.8520833 h -3.96875 v 2.6458332 h 3.96875 z"
       id="path985"
       sodipodi:nodetypes="ccc" />
    <path
       sodipodi:nodetypes="ccccc"
       id="path987"
       d="m 58.208334,1.1906249 h -3.96875 v 3.96875 h 3.96875 z"
       style="fill:none;stroke:#484848;stroke-width:0.264583;stroke-linecap:round;stroke-linejoin:miter;stroke-miterlimit:4;stroke-dasharray:none;stroke-opacity:1" />
    <circle
       r="1.9426478"
       cy="3.175"
       cx="69.453125"
       id="path1009"
       style="fill:none;fill-opacity:1;stroke:#484848;stroke-width:0.3175;stroke-linecap:round;stroke-linejoin:round;stroke-miterlimit:4;stroke-dasharray:none;stroke-dashoffset:0;stroke-opacity:1" />
    <ellipse
       ry="1.3229166"
       rx="1.9777269"
       style="fill:none;fill-opacity:1;stroke:#484848;stroke-width:0.3175;stroke-linecap:round;stroke-linejoin:round;stroke-miterlimit:4;stroke-dasharray:none;stroke-dashoffset:0;stroke-opacity:1"
       id="circle1011"
       cx="62.82317"
       cy="3.175" />
  </g>
</svg>
